<?xml version="1.0" encoding="utf-8"?>
<!-- Generator: Adobe Illustrator 23.0.0, SVG Export Plug-In . SVG Version: 6.00 Build 0)  -->
<svg version="1.1" id="Layer_1" xmlns="http://www.w3.org/2000/svg" xmlns:xlink="http://www.w3.org/1999/xlink" x="0px" y="0px"
	 viewBox="0 0 255 60" style="enable-background:new 0 0 255 60;" xml:space="preserve">
<style type="text/css">
	.st0{fill-rule:evenodd;clip-rule:evenodd;}
	.st1{fill-rule:evenodd;clip-rule:evenodd;fill:#0090BA;}
</style>
<title>Logo-halfwhite</title>
<desc>Created with Sketch.</desc>
<g id="Page-1">
	<g id="Hover-Copy" transform="translate(-81.000000, -344.000000)">
		<g id="Logo-halfwhite" transform="translate(81.000000, 344.000000)">
			<path id="Fill-1" class="st0" d="M178.1,45.3c-7.2,0-11.6-4.2-11.6-10.9c0-7,4.1-11.3,10.7-11.3l0.6,0c0.8,0,2,0,3.5,0.2v-8.4
				h4.7v29.7C186,44.6,181.6,45.3,178.1,45.3 M178.1,26.8c-4.5,0-6.7,2.5-6.7,7.5c0,4.5,2.7,7.3,6.9,7.3c0.8,0,1.8-0.1,3-0.2V27.1
				C180.1,26.9,179,26.8,178.1,26.8"/>
			<polygon id="Fill-3" class="st0" points="114,44.6 101.3,22.5 101.3,44.6 96.9,44.6 96.9,16.6 103.1,16.6 115.7,38.6 115.7,16.6 
				120.2,16.6 120.2,44.6 			"/>
			<path id="Fill-5" class="st0" d="M154.3,45.1c-2.1,0-4.4-0.2-7-0.7l-0.3-0.1v-3.9l0.4,0.1c2.3,0.5,4.3,0.9,6.4,0.9
				c1.6,0,5.4-0.3,5.4-2.7c0-2-2.6-2.5-4.7-2.9l-0.1,0c-0.4-0.1-0.8-0.2-1.1-0.2c-3.1-0.8-6.4-2-6.4-6.2c0-4,3.2-6.4,8.8-6.4
				c2.7,0,4.6,0.3,6.2,0.5l0.8,0.1v3.8l-0.4-0.1c-1.8-0.3-3.8-0.7-5.8-0.7c-2.2,0-4.8,0.4-4.8,2.4c0,1.6,2.1,2.1,4.6,2.6
				c3.5,0.8,7.8,1.7,7.8,6.5C163.9,42.6,160.4,45.1,154.3,45.1"/>
			<path id="Fill-7" class="st0" d="M199.2,45.1c-4.9,0-9.3-0.9-9.3-7.1c0-6.8,6.9-6.8,11.1-6.8c0.4,0,2.4,0.1,3,0.1
				c0-3.8-0.1-4.7-5.5-4.7c-2.2,0-4.6,0.4-6.7,0.8l-0.4,0.1v-3.7l0.3-0.1c2.5-0.5,4.8-0.8,7.3-0.8c5.3,0,9.8,0.5,9.8,7.1v14.4
				l-0.3,0C204.6,45,201.7,45.1,199.2,45.1 M200.8,34.6c-4,0-6.5,0.6-6.5,3.5c0,3.4,3.2,3.7,6.1,3.7c1.1,0,3.1-0.1,3.7-0.2v-6.9
				C203.3,34.7,201.1,34.6,200.8,34.6"/>
			<path id="Fill-9" class="st0" d="M133.4,45.1c-4.9,0-9.3-0.9-9.3-7.1c0-6.8,6.9-6.8,11.1-6.8c0.4,0,2.4,0.1,3,0.1
				c0-3.8-0.1-4.7-5.5-4.7c-2.2,0-4.6,0.4-6.7,0.8l-0.4,0.1v-3.7l0.3-0.1c2.5-0.5,4.8-0.8,7.3-0.8c5.3,0,9.8,0.5,9.8,7.1v14.4
				l-0.3,0C138.9,45,135.9,45.1,133.4,45.1 M135.1,34.6c-4,0-6.5,0.6-6.5,3.5c0,3.4,3.2,3.7,6.1,3.7c1.1,0,3.1-0.1,3.7-0.2v-6.9
				C137.6,34.7,135.3,34.6,135.1,34.6"/>
			<path id="Fill-11" class="st0" d="M227.3,54.2V45c-1.8,0.3-2.8,0.3-3.6,0.3c-1.9,0-3.9-0.4-5.5-1.1c-3.6-1.5-5.7-5.3-5.7-10.1
				c0-2.4,0.6-6.9,4.5-9.2c2-1.2,4.3-1.7,7.8-1.7c1.3,0,3,0.1,4.6,0.2l2.7,0.1V52L227.3,54.2z M224.5,26.8c-4.8,0-7.2,2.4-7.2,7.2
				c0,6.2,3.6,7.5,6.6,7.5c0.7,0,1.6,0,3.4-0.2V26.9C225.9,26.8,225.2,26.8,224.5,26.8z"/>
			<path id="N" class="st1" d="M76,0h16.7L77.1,42.7c-0.4,1.1-1.5,2-2.8,2H58v0c1.2-0.1,2.1-0.9,2.5-1.9L76,0z M56.6,44
				c-1.2,0-2.1-0.7-2.6-1.7l-3.3-9.2l5.7-15.7c0.1-0.3,0.3-0.6,0.4-0.7c0.5-0.7,1.3-1.2,2.3-1.2c1.2,0,2.2,0.7,2.6,1.7l3.3,9.1
				l-5.7,15.7c-0.1,0.4-0.3,0.6-0.4,0.7C58.4,43.5,57.6,44,56.6,44z M57.9,14.9L57.9,14.9c-1.2,0.1-2.3,0.9-2.7,2L39.7,59.6H23
				l15.5-42.7c0.4-1.1,1.5-2,2.8-2H57.9z"/>
		</g>
	</g>
</g>
</svg>
