<?xml version="1.0" encoding="utf-8"?>
<!-- Generator: Adobe Illustrator 23.0.0, SVG Export Plug-In . SVG Version: 6.00 Build 0)  -->
<svg version="1.1" id="Layer_1" xmlns="http://www.w3.org/2000/svg" xmlns:xlink="http://www.w3.org/1999/xlink" x="0px" y="0px"
	 viewBox="0 0 218 48.5" style="enable-background:new 0 0 218 48.5;" xml:space="preserve">
<style type="text/css">
	.st0{fill:#263238;}
</style>
<path class="st0" d="M50.2,30.9c-1.6-1.5-2.4-3.7-2.4-6.4V14.1H54v10.1c0,1.4,0.2,2.4,0.8,3c0.5,0.6,1.2,0.9,2.1,0.9
	c0.9,0,1.6-0.3,2.1-0.9c0.5-0.6,0.8-1.6,0.8-3V14.1H66v10.3c0,2.8-0.8,5-2.4,6.5c-1.6,1.6-3.8,2.3-6.8,2.3
	C54,33.3,51.7,32.5,50.2,30.9z M71.2,16c0.7,0,1.1,0.2,1.2,0.5c0.2,0.2,0.4,0.4,0.4,1.1c0,0.7-0.2,1-0.4,1.1
	c-0.2,0.2-0.5,0.4-1.2,0.4c-0.7,0-1-0.2-1.2-0.4c-0.2-0.2-0.5-0.5-0.5-1.1c0-0.6,0.2-0.9,0.5-1.1C70.3,16.3,70.6,16,71.2,16z
	 M71.2,14.1c-1,0-1.8,0.4-2.5,1s-1,1.4-1,2.5c0,1,0.3,1.9,1,2.5c0.7,0.7,1.5,1,2.6,1c1,0,1.9-0.3,2.5-1c0.7-0.7,1-1.5,1-2.5
	c0-1-0.3-1.9-1-2.5C73.1,14.5,72.3,14.1,71.2,14.1z M82.2,19.1h-5.5v-5h17.3V19h-5.5v13.8h-6.3C82.2,32.8,82.2,19.1,82.2,19.1z
	 M99.7,32.1c-1.5-0.8-2.8-2-3.8-3.5c-0.9-1.5-1.3-3.2-1.3-5s0.4-3.5,1.3-5s2.2-2.6,3.8-3.4c1.6-1,3.4-1.3,5.4-1.3s3.8,0.5,5.4,1.3
	c1.5,0.8,2.8,2,3.8,3.4c0.9,1.4,1.3,3.1,1.3,5s-0.4,3.5-1.3,5s-2.2,2.6-3.8,3.5c-1.6,0.8-3.4,1.3-5.4,1.3S101.3,32.9,99.7,32.1z
	 M107.2,27.6c0.6-0.4,1.2-1,1.5-1.6c0.4-0.7,0.5-1.5,0.5-2.5s-0.2-1.8-0.5-2.5c-0.4-0.7-0.9-1.3-1.5-1.6s-1.3-0.6-2.1-0.6
	c-1.5,0-2.9,0.9-3.6,2.3c-0.4,0.7-0.5,1.5-0.5,2.5s0.2,1.8,0.5,2.5c0.4,0.7,0.9,1.3,1.5,1.6s1.3,0.6,2.1,0.6
	C105.9,28.2,106.6,28,107.2,27.6z M117.9,14.1h9.2c2.1,0,3.9,0.4,5.6,1.1c1.5,0.7,2.8,1.8,3.8,3.2c0.9,1.4,1.3,3.1,1.3,4.9
	c0,1.9-0.4,3.5-1.3,5c-0.9,1.4-2.1,2.5-3.8,3.2c-1.6,0.8-3.5,1.1-5.6,1.1h-9.2V14.1z M126.9,28c1.3,0,2.4-0.4,3.2-1.1
	c0.8-0.8,1.2-1.9,1.2-3.3c0-1.4-0.4-2.5-1.2-3.3c-0.8-0.8-1.9-1.1-3.2-1.1h-2.7V28H126.9z M152.5,29.6h-7.1l-1.3,3.2h-6.4l8.2-18.7
	h6.2l8.1,18.8h-6.5C153.7,32.9,152.5,29.6,152.5,29.6z M150.8,25.1l-1.8-4.7l-1.8,4.7C147.2,25.1,150.8,25.1,150.8,25.1z
	 M171.2,26.1v6.8h-6.3v-6.9l-7-11.9h6.7l3.8,6.4l3.8-6.4h6.1C178.3,14.1,171.2,26.1,171.2,26.1z"/>
</svg>
